<?xml version="1.0" standalone="no"?>
<!DOCTYPE svg PUBLIC "-//W3C//DTD SVG 20010904//EN"
 "http://www.w3.org/TR/2001/REC-SVG-20010904/DTD/svg10.dtd">
<svg version="1.0" xmlns="http://www.w3.org/2000/svg"
 width="500.000000pt" height="500.000000pt" viewBox="0 0 500.000000 500.000000"
 preserveAspectRatio="xMidYMid meet">
<metadata>
Created by potrace 1.11, written by Peter Selinger 2001-2013
</metadata>
<g transform="translate(0.000000,500.000000) scale(0.100000,-0.100000)"
fill="#000000" stroke="none">
<path d="M620 2505 l0 -185 355 0 355 0 0 74 c0 66 -2 75 -20 81 -11 3 -20 10
-20 13 0 4 -16 16 -35 26 -19 10 -32 22 -30 26 2 4 27 6 55 4 l51 -2 -3 71 -3
72 -352 3 -353 2 0 -185z m482 71 c3 -5 4 -15 1 -23 -4 -10 -34 -13 -124 -13
-111 0 -119 1 -119 19 0 13 8 21 23 23 49 7 212 2 219 -6z m1 -115 c5 0 7 -9
5 -18 -3 -15 -18 -18 -121 -18 -116 -1 -134 3 -124 29 4 9 34 12 119 10 62 -1
117 -2 121 -3z"/>
<path d="M1413 2678 c-5 -7 -9 -89 -9 -183 l1 -170 348 -3 c274 -2 347 0 348
10 2 18 2 71 0 83 -1 7 -85 10 -236 10 -232 0 -235 0 -235 20 0 21 3 21 231
21 145 -1 233 3 238 9 4 5 7 21 7 35 l-1 25 -237 3 -238 2 0 24 0 24 231 1
c127 0 233 2 236 5 9 8 8 70 -1 84 -11 18 -670 17 -683 0z"/>
<path d="M2177 2684 c-4 -4 -7 -88 -7 -186 l0 -178 109 0 c78 0 110 4 113 13
2 6 3 49 3 95 -1 45 3 82 7 82 8 0 84 -55 98 -70 3 -3 21 -17 40 -30 19 -13
37 -27 40 -30 3 -3 21 -18 41 -33 34 -25 42 -27 143 -27 l106 0 -2 183 -3 182
-105 0 -105 0 -3 -97 c-1 -54 -5 -98 -8 -98 -5 0 -81 57 -94 70 -3 3 -34 27
-70 55 -36 27 -68 54 -72 60 -8 12 -219 20 -231 9z"/>
<path d="M2935 2682 c-6 -4 -10 -32 -10 -62 l0 -55 110 0 110 -1 3 -122 3
-122 123 0 123 0 1 108 c0 59 0 114 1 122 1 13 20 15 113 15 l112 0 0 51 c-1
28 -4 56 -8 62 -8 14 -663 17 -681 4z"/>
<path d="M3685 2684 c-8 -3 -12 -242 -6 -351 1 -10 30 -13 110 -13 l110 0 3
53 3 52 125 0 124 0 1 -50 0 -50 113 -3 112 -3 0 186 0 185 -342 -1 c-189 0
-347 -2 -353 -5z m433 -123 c30 -1 32 -3 32 -36 l0 -35 -125 0 -125 0 0 34 c0
33 2 35 38 38 20 2 62 2 92 1 30 -1 70 -2 88 -2z"/>
</g>
</svg>
